<?xml version="1.0" ?><svg viewBox="0 0 64 64" xmlns="http://www.w3.org/2000/svg"><defs><style>.cls-1{fill:#bec7d6;}.cls-1,.cls-2,.cls-7{fill-rule:evenodd;}.cls-2{fill:#94a1b2;}.cls-3{fill:#4f9ff6;}.cls-4{fill:#f8e157;}.cls-5{fill:#fcbf4a;}.cls-6{fill:#3f76d3;}.cls-7{fill:#fba018;}</style></defs><g id="Research"><polygon class="cls-1" points="40.66 37.53 48.45 45.33 45.28 48.41 37.59 40.72 40.66 37.53"/><polygon class="cls-2" points="39.11 39.54 40.89 37.76 48.53 45.4 46.42 46.84 39.11 39.54"/><path class="cls-3" d="M24.71,4A20.75,20.75,0,1,0,45.49,24.74,20.75,20.75,0,0,0,24.71,4Zm0,5.15A15.59,15.59,0,1,1,9.15,24.74,15.59,15.59,0,0,1,24.74,9.15Z"/><path class="cls-4" d="M24.74,14.94a9.8,9.8,0,1,1-9.8,9.8A9.8,9.8,0,0,1,24.74,14.94Z"/><path class="cls-5" d="M24.74,14.94a9.85,9.85,0,0,0-2.23.26,9.8,9.8,0,0,1,0,19.08,9.31,9.31,0,0,0,2.23.26,9.8,9.8,0,0,0,0-19.6Z"/><path class="cls-6" d="M24.71,4a18.19,18.19,0,0,0-1.95.1,20.74,20.74,0,0,1,0,41.29c.66.06,1.32.1,2,.1A20.75,20.75,0,1,0,24.74,4ZM20.77,9.15A15.59,15.59,0,0,0,5.18,24.74h0A15.59,15.59,0,0,0,20.77,40.33a16.32,16.32,0,0,0,2-.12,15.59,15.59,0,0,1,0-30.93A14.78,14.78,0,0,0,20.77,9.15Z"/><path class="cls-7" d="M23.74,19.7v-.54a1,1,0,0,1,2,0v.54a3,3,0,0,1,1.2.74,1,1,0,0,1,0,1.42,1,1,0,0,1-1.41,0,1.1,1.1,0,0,0-.76-.32h-.06a1.11,1.11,0,0,0,0,2.21,3.1,3.1,0,0,1,1,6v.53a1,1,0,0,1-2,0v-.53a3.07,3.07,0,0,1-1.19-.74A1,1,0,0,1,24,27.63a1.07,1.07,0,0,0,.7.33h.17a1.11,1.11,0,0,0-.09-2.21,3.11,3.11,0,0,1-1-6.05Z"/><path class="cls-6" d="M49.64,44.84a4.68,4.68,0,0,0-2.37.66,4.49,4.49,0,0,1,1,.75l5.56,5.56a4.78,4.78,0,0,1,0,6.78,4.86,4.86,0,0,1-1,.76,4.79,4.79,0,0,0,5.76-7.54L53,46.25A4.77,4.77,0,0,0,49.64,44.84Z"/><path class="cls-3" d="M52.83,59.35a4.86,4.86,0,0,0,1-.76,4.78,4.78,0,0,0,0-6.78l-5.56-5.56a4.49,4.49,0,0,0-1-.75h0a4.62,4.62,0,0,0-1,.75,4.78,4.78,0,0,0,0,6.78l5.56,5.56a5.3,5.3,0,0,0,1,.76Z"/></g></svg>